G75*
%MOIN*%
%OFA0B0*%
%FSLAX25Y25*%
%IPPOS*%
%LPD*%
%AMOC8*
5,1,8,0,0,1.08239X$1,22.5*
%
%ADD10C,0.00000*%
%ADD11C,0.00300*%
%ADD12C,0.00600*%
%ADD13C,0.01000*%
%ADD14C,0.00400*%
D10*
X0032595Y0028933D02*
X0032595Y0072634D01*
X0187516Y0072634D01*
X0187516Y0028933D01*
X0032595Y0028933D01*
D11*
X0035245Y0031583D02*
X0035245Y0035286D01*
X0037714Y0031583D01*
X0037714Y0035286D01*
X0038928Y0035286D02*
X0038928Y0031583D01*
X0041397Y0031583D01*
X0042611Y0032200D02*
X0043229Y0031583D01*
X0044463Y0031583D01*
X0045080Y0032200D01*
X0045080Y0032817D01*
X0044463Y0033435D01*
X0043229Y0033435D01*
X0042611Y0034052D01*
X0042611Y0034669D01*
X0043229Y0035286D01*
X0044463Y0035286D01*
X0045080Y0034669D01*
X0046295Y0033435D02*
X0048763Y0033435D01*
X0049978Y0033435D02*
X0051829Y0033435D01*
X0052446Y0032817D01*
X0052446Y0032200D01*
X0051829Y0031583D01*
X0049978Y0031583D01*
X0049978Y0035286D01*
X0051829Y0035286D01*
X0052446Y0034669D01*
X0052446Y0034052D01*
X0051829Y0033435D01*
X0053661Y0033435D02*
X0055512Y0033435D01*
X0056130Y0032817D01*
X0056130Y0032200D01*
X0055512Y0031583D01*
X0053661Y0031583D01*
X0053661Y0035286D01*
X0055512Y0035286D01*
X0056130Y0034669D01*
X0056130Y0034052D01*
X0055512Y0033435D01*
X0061027Y0034052D02*
X0062262Y0031583D01*
X0063496Y0034052D01*
X0064710Y0034052D02*
X0065945Y0035286D01*
X0065945Y0031583D01*
X0067179Y0031583D02*
X0064710Y0031583D01*
X0068393Y0031583D02*
X0069011Y0031583D01*
X0069011Y0032200D01*
X0068393Y0032200D01*
X0068393Y0031583D01*
X0070235Y0032200D02*
X0072704Y0034669D01*
X0072704Y0032200D01*
X0072087Y0031583D01*
X0070852Y0031583D01*
X0070235Y0032200D01*
X0070235Y0034669D01*
X0070852Y0035286D01*
X0072087Y0035286D01*
X0072704Y0034669D01*
X0073918Y0032200D02*
X0074535Y0032200D01*
X0074535Y0031583D01*
X0073918Y0031583D01*
X0073918Y0032200D01*
X0075760Y0032200D02*
X0076377Y0031583D01*
X0077611Y0031583D01*
X0078229Y0032200D01*
X0078229Y0034669D01*
X0075760Y0032200D01*
X0075760Y0034669D01*
X0076377Y0035286D01*
X0077611Y0035286D01*
X0078229Y0034669D01*
X0041397Y0035286D02*
X0038928Y0035286D01*
X0038928Y0033435D02*
X0040163Y0033435D01*
X0148995Y0065817D02*
X0149479Y0065333D01*
X0150446Y0065333D01*
X0150930Y0065817D01*
X0150930Y0066784D01*
X0149963Y0066784D01*
X0150930Y0067752D02*
X0150446Y0068236D01*
X0149479Y0068236D01*
X0148995Y0067752D01*
X0148995Y0065817D01*
X0151942Y0065333D02*
X0151942Y0068236D01*
X0153877Y0065333D01*
X0153877Y0068236D01*
X0154888Y0068236D02*
X0156339Y0068236D01*
X0156823Y0067752D01*
X0156823Y0065817D01*
X0156339Y0065333D01*
X0154888Y0065333D01*
X0154888Y0068236D01*
X0165245Y0068236D02*
X0165245Y0065333D01*
X0165245Y0066301D02*
X0166696Y0066301D01*
X0167180Y0066784D01*
X0167180Y0067752D01*
X0166696Y0068236D01*
X0165245Y0068236D01*
X0168192Y0067752D02*
X0168192Y0067268D01*
X0168675Y0066784D01*
X0169643Y0066784D01*
X0170127Y0066301D01*
X0170127Y0065817D01*
X0169643Y0065333D01*
X0168675Y0065333D01*
X0168192Y0065817D01*
X0167180Y0065333D02*
X0166213Y0066301D01*
X0168192Y0067752D02*
X0168675Y0068236D01*
X0169643Y0068236D01*
X0170127Y0067752D01*
X0171138Y0068236D02*
X0173073Y0068236D01*
X0172106Y0068236D02*
X0172106Y0065333D01*
X0171339Y0041986D02*
X0169888Y0041986D01*
X0169888Y0039083D01*
X0169888Y0040051D02*
X0171339Y0040051D01*
X0171823Y0040534D01*
X0171823Y0041502D01*
X0171339Y0041986D01*
X0168877Y0041986D02*
X0168877Y0039083D01*
X0167909Y0040051D01*
X0166942Y0039083D01*
X0166942Y0041986D01*
X0165930Y0041502D02*
X0165930Y0040534D01*
X0165446Y0040051D01*
X0163995Y0040051D01*
X0163995Y0039083D02*
X0163995Y0041986D01*
X0165446Y0041986D01*
X0165930Y0041502D01*
X0170856Y0040051D02*
X0171823Y0039083D01*
X0158073Y0039567D02*
X0157589Y0039083D01*
X0156138Y0039083D01*
X0156138Y0041986D01*
X0157589Y0041986D01*
X0158073Y0041502D01*
X0158073Y0039567D01*
X0155127Y0039083D02*
X0153192Y0039083D01*
X0153192Y0041986D01*
X0155127Y0041986D01*
X0154159Y0040534D02*
X0153192Y0040534D01*
X0150245Y0039083D02*
X0150245Y0041986D01*
X0150245Y0039083D02*
X0152180Y0039083D01*
D12*
X0151345Y0043933D02*
X0148845Y0046433D01*
X0148845Y0051433D01*
X0151345Y0053933D01*
X0148845Y0056433D01*
X0148845Y0061433D01*
X0151345Y0063933D01*
X0156345Y0063933D01*
X0158845Y0061433D01*
X0158845Y0056433D01*
X0156345Y0053933D01*
X0158845Y0051433D01*
X0158845Y0046433D01*
X0156345Y0043933D01*
X0151345Y0043933D01*
X0163845Y0046433D02*
X0163845Y0051433D01*
X0166345Y0053933D01*
X0163845Y0056433D01*
X0163845Y0061433D01*
X0166345Y0063933D01*
X0171345Y0063933D01*
X0173845Y0061433D01*
X0173845Y0056433D01*
X0171345Y0053933D01*
X0173845Y0051433D01*
X0173845Y0046433D01*
X0171345Y0043933D01*
X0166345Y0043933D01*
X0163845Y0046433D01*
X0166345Y0053933D02*
X0171345Y0053933D01*
X0156345Y0053933D02*
X0151345Y0053933D01*
X0137720Y0054433D02*
X0135720Y0054433D01*
X0137720Y0054433D02*
X0137720Y0056433D01*
X0130720Y0054433D02*
X0128720Y0054433D01*
X0128720Y0056433D01*
X0128720Y0061433D02*
X0128720Y0063433D01*
X0130720Y0063433D01*
X0135720Y0063433D02*
X0137720Y0063433D01*
X0137720Y0061433D01*
X0138033Y0039683D02*
X0136033Y0039683D01*
X0138033Y0039683D02*
X0138033Y0037683D01*
X0131033Y0039683D02*
X0129033Y0039683D01*
X0129033Y0037683D01*
X0129033Y0032683D02*
X0129033Y0030683D01*
X0131033Y0030683D01*
X0136033Y0030683D02*
X0138033Y0030683D01*
X0138033Y0032683D01*
X0092095Y0032683D02*
X0092095Y0030683D01*
X0090095Y0030683D01*
X0085095Y0030683D02*
X0083095Y0030683D01*
X0083095Y0032683D01*
X0083095Y0037683D02*
X0083095Y0039683D01*
X0085095Y0039683D01*
X0090095Y0039683D02*
X0092095Y0039683D01*
X0092095Y0037683D01*
X0092095Y0054433D02*
X0090095Y0054433D01*
X0092095Y0054433D02*
X0092095Y0056433D01*
X0085095Y0054433D02*
X0083095Y0054433D01*
X0083095Y0056433D01*
X0083095Y0061433D02*
X0083095Y0063433D01*
X0085095Y0063433D01*
X0090095Y0063433D02*
X0092095Y0063433D01*
X0092095Y0061433D01*
X0052595Y0042933D02*
X0052441Y0042935D01*
X0052287Y0042941D01*
X0052133Y0042951D01*
X0051979Y0042965D01*
X0051826Y0042982D01*
X0051674Y0043004D01*
X0051522Y0043030D01*
X0051370Y0043059D01*
X0051220Y0043093D01*
X0051070Y0043130D01*
X0050922Y0043171D01*
X0050774Y0043216D01*
X0050628Y0043265D01*
X0050483Y0043317D01*
X0050340Y0043373D01*
X0050197Y0043433D01*
X0050057Y0043496D01*
X0049918Y0043563D01*
X0049781Y0043634D01*
X0049646Y0043708D01*
X0049513Y0043785D01*
X0049381Y0043866D01*
X0049252Y0043950D01*
X0049125Y0044038D01*
X0049001Y0044129D01*
X0048879Y0044222D01*
X0048759Y0044320D01*
X0048642Y0044420D01*
X0048527Y0044523D01*
X0048415Y0044629D01*
X0048306Y0044737D01*
X0048200Y0044849D01*
X0048096Y0044963D01*
X0047996Y0045080D01*
X0047898Y0045199D01*
X0047804Y0045321D01*
X0047713Y0045446D01*
X0052595Y0054933D02*
X0052747Y0054931D01*
X0052898Y0054925D01*
X0053049Y0054916D01*
X0053201Y0054902D01*
X0053351Y0054885D01*
X0053501Y0054864D01*
X0053651Y0054839D01*
X0053800Y0054811D01*
X0053948Y0054778D01*
X0054095Y0054742D01*
X0054242Y0054703D01*
X0054387Y0054659D01*
X0054531Y0054612D01*
X0054674Y0054561D01*
X0054815Y0054507D01*
X0054956Y0054449D01*
X0055094Y0054388D01*
X0055231Y0054323D01*
X0055367Y0054254D01*
X0055500Y0054183D01*
X0055632Y0054108D01*
X0055762Y0054029D01*
X0055889Y0053948D01*
X0056015Y0053863D01*
X0056139Y0053775D01*
X0056260Y0053684D01*
X0056379Y0053590D01*
X0056495Y0053492D01*
X0056609Y0053392D01*
X0056721Y0053290D01*
X0056829Y0053184D01*
X0056935Y0053076D01*
X0057039Y0052965D01*
X0057139Y0052851D01*
X0057237Y0052735D01*
X0057331Y0052616D01*
X0052595Y0054933D02*
X0052443Y0054931D01*
X0052292Y0054925D01*
X0052141Y0054916D01*
X0051989Y0054902D01*
X0051839Y0054885D01*
X0051689Y0054864D01*
X0051539Y0054839D01*
X0051390Y0054811D01*
X0051242Y0054778D01*
X0051095Y0054742D01*
X0050948Y0054703D01*
X0050803Y0054659D01*
X0050659Y0054612D01*
X0050516Y0054561D01*
X0050375Y0054507D01*
X0050234Y0054449D01*
X0050096Y0054388D01*
X0049959Y0054323D01*
X0049823Y0054254D01*
X0049690Y0054183D01*
X0049558Y0054108D01*
X0049428Y0054029D01*
X0049301Y0053948D01*
X0049175Y0053863D01*
X0049051Y0053775D01*
X0048930Y0053684D01*
X0048811Y0053590D01*
X0048695Y0053492D01*
X0048581Y0053392D01*
X0048469Y0053290D01*
X0048361Y0053184D01*
X0048255Y0053076D01*
X0048151Y0052965D01*
X0048051Y0052851D01*
X0047953Y0052735D01*
X0047859Y0052616D01*
X0052595Y0042933D02*
X0052745Y0042935D01*
X0052896Y0042941D01*
X0053046Y0042950D01*
X0053195Y0042963D01*
X0053345Y0042980D01*
X0053494Y0043001D01*
X0053642Y0043025D01*
X0053790Y0043053D01*
X0053937Y0043085D01*
X0054083Y0043120D01*
X0054228Y0043160D01*
X0054372Y0043202D01*
X0054515Y0043249D01*
X0054657Y0043299D01*
X0054798Y0043352D01*
X0054937Y0043409D01*
X0055075Y0043469D01*
X0055211Y0043533D01*
X0055345Y0043600D01*
X0055478Y0043671D01*
X0055609Y0043745D01*
X0055738Y0043822D01*
X0055865Y0043903D01*
X0055990Y0043986D01*
X0056113Y0044073D01*
X0056234Y0044162D01*
X0056352Y0044255D01*
X0056468Y0044351D01*
X0056582Y0044449D01*
X0056693Y0044550D01*
X0056802Y0044655D01*
X0056907Y0044761D01*
X0057011Y0044871D01*
X0057111Y0044983D01*
X0057209Y0045097D01*
X0057303Y0045214D01*
X0057395Y0045333D01*
D13*
X0059541Y0052902D02*
X0059442Y0053071D01*
X0059338Y0053237D01*
X0059231Y0053401D01*
X0059120Y0053562D01*
X0059005Y0053720D01*
X0058886Y0053875D01*
X0058763Y0054028D01*
X0058637Y0054177D01*
X0058507Y0054323D01*
X0058373Y0054466D01*
X0058236Y0054606D01*
X0058096Y0054742D01*
X0057952Y0054875D01*
X0057805Y0055004D01*
X0057655Y0055130D01*
X0057502Y0055251D01*
X0057346Y0055370D01*
X0057187Y0055484D01*
X0057026Y0055594D01*
X0056861Y0055700D01*
X0056695Y0055803D01*
X0056525Y0055901D01*
X0056354Y0055995D01*
X0056180Y0056085D01*
X0056004Y0056170D01*
X0055826Y0056252D01*
X0055646Y0056328D01*
X0055464Y0056401D01*
X0055281Y0056469D01*
X0055096Y0056532D01*
X0054909Y0056591D01*
X0054721Y0056645D01*
X0054532Y0056695D01*
X0054342Y0056740D01*
X0054150Y0056780D01*
X0053958Y0056816D01*
X0053765Y0056847D01*
X0053571Y0056873D01*
X0053376Y0056895D01*
X0053181Y0056911D01*
X0052986Y0056923D01*
X0052790Y0056931D01*
X0052595Y0056933D01*
X0059654Y0045168D02*
X0059561Y0045000D01*
X0059465Y0044834D01*
X0059365Y0044670D01*
X0059260Y0044509D01*
X0059152Y0044350D01*
X0059040Y0044194D01*
X0058924Y0044040D01*
X0058805Y0043890D01*
X0058682Y0043742D01*
X0058556Y0043597D01*
X0058426Y0043456D01*
X0058293Y0043317D01*
X0058156Y0043182D01*
X0058016Y0043050D01*
X0057874Y0042922D01*
X0057728Y0042797D01*
X0057579Y0042675D01*
X0057427Y0042557D01*
X0057273Y0042443D01*
X0057115Y0042333D01*
X0056956Y0042226D01*
X0056793Y0042123D01*
X0056628Y0042024D01*
X0056461Y0041929D01*
X0056292Y0041839D01*
X0056121Y0041752D01*
X0055947Y0041669D01*
X0055772Y0041591D01*
X0055594Y0041517D01*
X0055415Y0041447D01*
X0055235Y0041381D01*
X0055053Y0041320D01*
X0054869Y0041263D01*
X0054684Y0041211D01*
X0054498Y0041163D01*
X0054311Y0041119D01*
X0054123Y0041080D01*
X0053934Y0041046D01*
X0053744Y0041016D01*
X0053554Y0040991D01*
X0053363Y0040970D01*
X0053171Y0040954D01*
X0052979Y0040942D01*
X0052787Y0040935D01*
X0052595Y0040933D01*
X0046488Y0054101D02*
X0046615Y0054247D01*
X0046744Y0054389D01*
X0046878Y0054529D01*
X0047014Y0054665D01*
X0047154Y0054798D01*
X0047297Y0054928D01*
X0047444Y0055054D01*
X0047593Y0055176D01*
X0047745Y0055295D01*
X0047900Y0055410D01*
X0048057Y0055522D01*
X0048217Y0055629D01*
X0048380Y0055733D01*
X0048546Y0055832D01*
X0048713Y0055928D01*
X0048883Y0056020D01*
X0049055Y0056107D01*
X0049229Y0056191D01*
X0049405Y0056270D01*
X0049583Y0056344D01*
X0049763Y0056415D01*
X0049944Y0056481D01*
X0050127Y0056543D01*
X0050311Y0056600D01*
X0050497Y0056653D01*
X0050684Y0056701D01*
X0050872Y0056745D01*
X0051061Y0056784D01*
X0051251Y0056819D01*
X0051441Y0056849D01*
X0051632Y0056875D01*
X0051824Y0056896D01*
X0052017Y0056912D01*
X0052209Y0056924D01*
X0052402Y0056931D01*
X0052595Y0056933D01*
X0046449Y0043811D02*
X0046576Y0043663D01*
X0046706Y0043518D01*
X0046839Y0043377D01*
X0046976Y0043238D01*
X0047116Y0043103D01*
X0047260Y0042972D01*
X0047407Y0042844D01*
X0047556Y0042719D01*
X0047709Y0042598D01*
X0047864Y0042481D01*
X0048023Y0042368D01*
X0048184Y0042259D01*
X0048348Y0042154D01*
X0048514Y0042052D01*
X0048683Y0041955D01*
X0048853Y0041862D01*
X0049027Y0041773D01*
X0049202Y0041688D01*
X0049379Y0041608D01*
X0049558Y0041532D01*
X0049739Y0041460D01*
X0049922Y0041393D01*
X0050106Y0041330D01*
X0050292Y0041272D01*
X0050479Y0041218D01*
X0050667Y0041169D01*
X0050857Y0041124D01*
X0051047Y0041084D01*
X0051239Y0041049D01*
X0051431Y0041018D01*
X0051624Y0040992D01*
X0051818Y0040971D01*
X0052012Y0040954D01*
X0052206Y0040942D01*
X0052400Y0040935D01*
X0052595Y0040933D01*
D14*
X0070291Y0040383D02*
X0070291Y0042685D01*
X0071059Y0043452D01*
X0072593Y0043452D01*
X0073361Y0042685D01*
X0073361Y0040383D01*
X0074895Y0040383D02*
X0070291Y0040383D01*
X0073361Y0041918D02*
X0074895Y0043452D01*
X0074895Y0044987D02*
X0074895Y0048056D01*
X0074895Y0046522D02*
X0070291Y0046522D01*
X0071826Y0044987D01*
X0100291Y0045754D02*
X0101059Y0044987D01*
X0100291Y0045754D02*
X0100291Y0047289D01*
X0101059Y0048056D01*
X0101826Y0048056D01*
X0104895Y0044987D01*
X0104895Y0048056D01*
X0104895Y0043452D02*
X0103361Y0041918D01*
X0103361Y0042685D02*
X0103361Y0040383D01*
X0104895Y0040383D02*
X0100291Y0040383D01*
X0100291Y0042685D01*
X0101059Y0043452D01*
X0102593Y0043452D01*
X0103361Y0042685D01*
X0115291Y0042685D02*
X0115291Y0040383D01*
X0119895Y0040383D01*
X0118361Y0040383D02*
X0118361Y0042685D01*
X0117593Y0043452D01*
X0116059Y0043452D01*
X0115291Y0042685D01*
X0116059Y0044987D02*
X0115291Y0045754D01*
X0115291Y0047289D01*
X0116059Y0048056D01*
X0116826Y0048056D01*
X0117593Y0047289D01*
X0118361Y0048056D01*
X0119128Y0048056D01*
X0119895Y0047289D01*
X0119895Y0045754D01*
X0119128Y0044987D01*
X0117593Y0046522D02*
X0117593Y0047289D01*
X0119895Y0043452D02*
X0118361Y0041918D01*
M02*
