G75*
%MOIN*%
%OFA0B0*%
%FSLAX25Y25*%
%IPPOS*%
%LPD*%
%AMOC8*
5,1,8,0,0,1.08239X$1,22.5*
%
%ADD10OC8,0.05200*%
%ADD11C,0.06000*%
%ADD12OC8,0.08500*%
%ADD13C,0.01600*%
D10*
X0047595Y0048933D03*
X0057595Y0048933D03*
D11*
X0150845Y0048933D02*
X0156845Y0048933D01*
X0165845Y0048933D02*
X0171845Y0048933D01*
X0171845Y0058933D02*
X0165845Y0058933D01*
X0156845Y0058933D02*
X0150845Y0058933D01*
D12*
X0133220Y0058933D03*
X0133533Y0035183D03*
X0087595Y0035183D03*
X0087595Y0058933D03*
D13*
X0037395Y0067834D02*
X0037395Y0033733D01*
X0081745Y0033733D01*
X0081745Y0037606D01*
X0085172Y0041033D01*
X0090018Y0041033D01*
X0093445Y0037606D01*
X0093445Y0033733D01*
X0127683Y0033733D01*
X0127683Y0037606D01*
X0131109Y0041033D01*
X0135956Y0041033D01*
X0139383Y0037606D01*
X0139383Y0033733D01*
X0182716Y0033733D01*
X0182716Y0067834D01*
X0037395Y0067834D01*
X0037395Y0067297D02*
X0182716Y0067297D01*
X0182716Y0065699D02*
X0037395Y0065699D01*
X0037395Y0064100D02*
X0084489Y0064100D01*
X0085172Y0064783D02*
X0081745Y0061356D01*
X0081745Y0056510D01*
X0085172Y0053083D01*
X0090018Y0053083D01*
X0093445Y0056510D01*
X0093445Y0061356D01*
X0090018Y0064783D01*
X0085172Y0064783D01*
X0082891Y0062502D02*
X0037395Y0062502D01*
X0037395Y0060903D02*
X0081745Y0060903D01*
X0081745Y0059305D02*
X0037395Y0059305D01*
X0037395Y0057706D02*
X0081745Y0057706D01*
X0082147Y0056108D02*
X0037395Y0056108D01*
X0037395Y0054509D02*
X0083746Y0054509D01*
X0091444Y0054509D02*
X0129371Y0054509D01*
X0127772Y0056108D02*
X0093043Y0056108D01*
X0093445Y0057706D02*
X0127370Y0057706D01*
X0127370Y0056510D02*
X0130797Y0053083D01*
X0135643Y0053083D01*
X0139070Y0056510D01*
X0139070Y0061356D01*
X0135643Y0064783D01*
X0130797Y0064783D01*
X0127370Y0061356D01*
X0127370Y0056510D01*
X0127370Y0059305D02*
X0093445Y0059305D01*
X0093445Y0060903D02*
X0127370Y0060903D01*
X0128516Y0062502D02*
X0092300Y0062502D01*
X0090701Y0064100D02*
X0130114Y0064100D01*
X0136326Y0064100D02*
X0182716Y0064100D01*
X0182716Y0062502D02*
X0174782Y0062502D01*
X0174451Y0062833D02*
X0172760Y0063533D01*
X0164930Y0063533D01*
X0163239Y0062833D01*
X0161945Y0061539D01*
X0161441Y0060321D01*
X0161293Y0060776D01*
X0160950Y0061449D01*
X0160506Y0062060D01*
X0159972Y0062594D01*
X0159361Y0063038D01*
X0158688Y0063381D01*
X0157969Y0063615D01*
X0157223Y0063733D01*
X0154045Y0063733D01*
X0154045Y0059133D01*
X0153645Y0059133D01*
X0153645Y0058733D01*
X0146045Y0058733D01*
X0146045Y0058555D01*
X0146163Y0057809D01*
X0146397Y0057091D01*
X0146740Y0056417D01*
X0147184Y0055806D01*
X0147718Y0055272D01*
X0148329Y0054828D01*
X0149003Y0054485D01*
X0149721Y0054251D01*
X0150467Y0054133D01*
X0153645Y0054133D01*
X0153645Y0058733D01*
X0154045Y0058733D01*
X0154045Y0054133D01*
X0157223Y0054133D01*
X0157969Y0054251D01*
X0158688Y0054485D01*
X0159361Y0054828D01*
X0159972Y0055272D01*
X0160506Y0055806D01*
X0160950Y0056417D01*
X0161293Y0057091D01*
X0161441Y0057545D01*
X0161945Y0056327D01*
X0163239Y0055033D01*
X0164930Y0054333D01*
X0172760Y0054333D01*
X0174451Y0055033D01*
X0175745Y0056327D01*
X0176445Y0058018D01*
X0176445Y0059848D01*
X0175745Y0061539D01*
X0174451Y0062833D01*
X0176008Y0060903D02*
X0182716Y0060903D01*
X0182716Y0059305D02*
X0176445Y0059305D01*
X0176316Y0057706D02*
X0182716Y0057706D01*
X0182716Y0056108D02*
X0175525Y0056108D01*
X0173185Y0054509D02*
X0182716Y0054509D01*
X0182716Y0052911D02*
X0174263Y0052911D01*
X0174451Y0052833D02*
X0172760Y0053533D01*
X0164930Y0053533D01*
X0163239Y0052833D01*
X0161945Y0051539D01*
X0161345Y0050089D01*
X0160745Y0051539D01*
X0159451Y0052833D01*
X0157760Y0053533D01*
X0149930Y0053533D01*
X0148239Y0052833D01*
X0146945Y0051539D01*
X0146245Y0049848D01*
X0146245Y0048018D01*
X0146945Y0046327D01*
X0148239Y0045033D01*
X0149930Y0044333D01*
X0157760Y0044333D01*
X0159451Y0045033D01*
X0160745Y0046327D01*
X0161345Y0047777D01*
X0161945Y0046327D01*
X0163239Y0045033D01*
X0164930Y0044333D01*
X0172760Y0044333D01*
X0174451Y0045033D01*
X0175745Y0046327D01*
X0176445Y0048018D01*
X0176445Y0049848D01*
X0175745Y0051539D01*
X0174451Y0052833D01*
X0175839Y0051312D02*
X0182716Y0051312D01*
X0182716Y0049714D02*
X0176445Y0049714D01*
X0176445Y0048115D02*
X0182716Y0048115D01*
X0182716Y0046517D02*
X0175823Y0046517D01*
X0174173Y0044918D02*
X0182716Y0044918D01*
X0182716Y0043320D02*
X0037395Y0043320D01*
X0037395Y0041721D02*
X0182716Y0041721D01*
X0182716Y0040123D02*
X0136866Y0040123D01*
X0138465Y0038524D02*
X0182716Y0038524D01*
X0182716Y0036926D02*
X0139383Y0036926D01*
X0139383Y0035327D02*
X0182716Y0035327D01*
X0163518Y0044918D02*
X0159173Y0044918D01*
X0160823Y0046517D02*
X0161867Y0046517D01*
X0161852Y0051312D02*
X0160839Y0051312D01*
X0159263Y0052911D02*
X0163428Y0052911D01*
X0164505Y0054509D02*
X0158736Y0054509D01*
X0160726Y0056108D02*
X0162165Y0056108D01*
X0154045Y0056108D02*
X0153645Y0056108D01*
X0153645Y0054509D02*
X0154045Y0054509D01*
X0154045Y0057706D02*
X0153645Y0057706D01*
X0153645Y0059133D02*
X0146045Y0059133D01*
X0146045Y0059311D01*
X0146163Y0060057D01*
X0146397Y0060776D01*
X0146740Y0061449D01*
X0147184Y0062060D01*
X0147718Y0062594D01*
X0148329Y0063038D01*
X0149003Y0063381D01*
X0149721Y0063615D01*
X0150467Y0063733D01*
X0153645Y0063733D01*
X0153645Y0059133D01*
X0153645Y0059305D02*
X0154045Y0059305D01*
X0154045Y0060903D02*
X0153645Y0060903D01*
X0153645Y0062502D02*
X0154045Y0062502D01*
X0160065Y0062502D02*
X0162909Y0062502D01*
X0161682Y0060903D02*
X0161228Y0060903D01*
X0148954Y0054509D02*
X0137069Y0054509D01*
X0138668Y0056108D02*
X0146965Y0056108D01*
X0146197Y0057706D02*
X0139070Y0057706D01*
X0139070Y0059305D02*
X0146045Y0059305D01*
X0146462Y0060903D02*
X0139070Y0060903D01*
X0137925Y0062502D02*
X0147626Y0062502D01*
X0148428Y0052911D02*
X0059557Y0052911D01*
X0059335Y0053133D02*
X0055855Y0053133D01*
X0053395Y0050673D01*
X0053395Y0047193D01*
X0055855Y0044733D01*
X0059335Y0044733D01*
X0061795Y0047193D01*
X0061795Y0050673D01*
X0059335Y0053133D01*
X0061156Y0051312D02*
X0146852Y0051312D01*
X0146245Y0049714D02*
X0061795Y0049714D01*
X0061795Y0048115D02*
X0146245Y0048115D01*
X0146867Y0046517D02*
X0061118Y0046517D01*
X0059520Y0044918D02*
X0148518Y0044918D01*
X0130199Y0040123D02*
X0090929Y0040123D01*
X0092527Y0038524D02*
X0128601Y0038524D01*
X0127683Y0036926D02*
X0093445Y0036926D01*
X0093445Y0035327D02*
X0127683Y0035327D01*
X0084262Y0040123D02*
X0037395Y0040123D01*
X0037395Y0038524D02*
X0082663Y0038524D01*
X0081745Y0036926D02*
X0037395Y0036926D01*
X0037395Y0035327D02*
X0081745Y0035327D01*
X0055670Y0044918D02*
X0049803Y0044918D01*
X0049418Y0044533D02*
X0047595Y0044533D01*
X0047595Y0048933D01*
X0043195Y0048933D01*
X0043195Y0047111D01*
X0045773Y0044533D01*
X0047595Y0044533D01*
X0047595Y0048933D01*
X0047595Y0048933D01*
X0047595Y0048933D01*
X0043195Y0048933D01*
X0043195Y0050756D01*
X0045773Y0053333D01*
X0047595Y0053333D01*
X0047595Y0048933D01*
X0047595Y0048933D01*
X0047595Y0048933D01*
X0051995Y0048933D01*
X0051995Y0047111D01*
X0049418Y0044533D01*
X0047595Y0044918D02*
X0047595Y0044918D01*
X0047595Y0046517D02*
X0047595Y0046517D01*
X0047595Y0048115D02*
X0047595Y0048115D01*
X0047595Y0048933D02*
X0051995Y0048933D01*
X0051995Y0050756D01*
X0049418Y0053333D01*
X0047595Y0053333D01*
X0047595Y0048933D01*
X0047595Y0049714D02*
X0047595Y0049714D01*
X0047595Y0051312D02*
X0047595Y0051312D01*
X0047595Y0052911D02*
X0047595Y0052911D01*
X0049840Y0052911D02*
X0055633Y0052911D01*
X0054035Y0051312D02*
X0051438Y0051312D01*
X0051995Y0049714D02*
X0053395Y0049714D01*
X0053395Y0048115D02*
X0051995Y0048115D01*
X0051401Y0046517D02*
X0054072Y0046517D01*
X0045387Y0044918D02*
X0037395Y0044918D01*
X0037395Y0046517D02*
X0043789Y0046517D01*
X0043195Y0048115D02*
X0037395Y0048115D01*
X0037395Y0049714D02*
X0043195Y0049714D01*
X0043752Y0051312D02*
X0037395Y0051312D01*
X0037395Y0052911D02*
X0045350Y0052911D01*
M02*
